<?xml version="1.0" encoding="UTF-8"?>
<!DOCTYPE svg PUBLIC "-//W3C//DTD SVG 1.1//EN" "http://www.w3.org/Graphics/SVG/1.1/DTD/svg11.dtd">
<svg width="220pt" height="160pt" viewBox="0 0 220 160" version="1.1" xmlns="http://www.w3.org/2000/svg">
    <title>GameFly logo</title>
    <path fill="#557cbe" d="M71.21 0h4.51c11.36 2.11 22.76 4.03 34.17 5.89C87.6 36.95 68.78 70.33 51.15 104.2c-2.46 5.08-5.39 9.95-7.45 15.22-6.34 3.38-13.4 5.82-20.67 5.63-4.27-.26-9.14-1.59-11.52-5.46-.81-2.71-.19-5.65.22-8.4 2.1-10.09 5.57-19.84 9.12-29.5 7.07-18.76 15-37.2 23.84-55.2 2.85-5.65 5.64-11.36 9.21-16.6C57.96 4.37 64.41.74 71.21 0z"/>
    <path fill="#d65611" d="M143.4 0h5.32c7.53.75 14.6 5.12 18.55 11.58 4.71 7.68 8.54 15.85 12.44 23.96 7.04 15.14 13.6 30.52 19.48 46.16 3.5 9.65 7.03 19.36 9.1 29.45.4 2.76 1.06 5.71.23 8.44-2.4 3.85-7.25 5.23-11.54 5.44-7.22.21-14.28-2.17-20.56-5.59-8.56-17.99-18.17-35.48-27.91-52.86-11.87-20.79-24.31-41.31-38.44-60.66C121.18 3.95 132.38 2.45 143.4 0z"/>
    <path fill="#13262b" d="M109.89 5.89c.04.01.14.03.18.03 14.13 19.35 26.57 39.87 38.44 60.66 9.74 17.38 19.35 34.87 27.91 52.86-11.09-4.56-20.74-12.49-27.59-22.33-5.11-6.74-12.73-10.99-20.18-14.68-7.08-3.2-14.84-6.51-22.77-5.03-7.02 1.36-13.59 4.36-19.83 7.76-5.71 3.3-11.44 7.04-15.28 12.53-6.76 9.57-16.25 17.22-27.07 21.73 2.06-5.27 4.99-10.14 7.45-15.22C68.78 70.33 87.6 36.95 109.89 5.89zM190.24 135.68c1.82.07 3.64.07 5.46.02.27 2.72-.35 5.56.44 8.2.3.19.88.57 1.18.76 3.91.09 7.82-.02 11.74.04 1.14.19 2.44-.46 2.67-1.66.13-2.42.01-4.85.05-7.27 1.95-.02 3.91-.03 5.87-.06-.02 2.42.05 4.84-.04 7.25-.08 2.9-2.02 5.56-4.58 6.83-1.98 1.01-4.25.62-6.38.66-.01 2.8-.03 5.6.06 8.4-1.91.13-3.83.13-5.73.07-.07-2.84.04-5.69-.17-8.53-2.86.28-6.08.18-8.25-1.98-3.58-3.16-2.66-8.51-2.32-12.73zM4.46 136.65c2.01-1.06 4.36-.71 6.54-.75 5.35.13 10.69-.14 16.04-.08 0 1.97-.04 3.94-.1 5.9-5.99-.06-11.98-.04-17.97-.05-1.21-.01-2.28.38-3.2 1.19.08 3.01-.2 6.03.15 9.03.29.26.86.78 1.15 1.04 4.66.43 9.35.08 14.03.17-.05-.7-.16-2.08-.21-2.77-2.01.06-4.01.11-6.02.15-1.25-1.96-2.49-3.92-3.74-5.88 5.31.14 10.61.06 15.92.08.01 4.75.04 9.51-.03 14.27-6.35-.04-12.7.02-19.05-.02-3.76.16-6.92-2.79-7.97-6.24V142.3c.74-2.33 2.15-4.61 4.46-5.65zM43.04 135.84c2.36-.05 4.72-.05 7.09-.01 4.63 7.75 9.84 15.19 14.09 23.14-2.31-.01-4.62-.01-6.93-.11-.67-1.12-1.38-2.2-2.11-3.27-4.63-.08-9.44.5-13.97-.21 1.17-1.6 2.25-3.27 3.26-4.97 2.5-.05 5.01.01 7.52.13-1.77-2.95-3.28-6.21-5.56-8.79-3.36 5.84-7.1 11.43-10.56 17.21-2.34-.03-4.68-.02-7.03-.01 4.55-7.82 9.56-15.35 14.2-23.11zM65.46 158.59c-.15-7.64-.23-15.31.04-22.94 6.61-.42 13.88 1.57 17.74 7.33 2.05-1.9 3.96-4.04 6.53-5.24 3.5-1.96 7.6-2.07 11.51-2.05.65 7.66-.01 15.41.32 23.1-2.15.26-4.31.17-6.47.14-.02-5.47.03-10.93-.02-16.4-4.26.78-6.85 4.5-8.97 7.93-1.77-.03-3.54-.02-5.31.03-2.19-3.44-4.84-7.12-9.08-8.03.05 5.48-.01 10.97.03 16.45-2.07-.16-4.44.54-6.32-.32zM106.15 141c1.09-3.22 4.49-5.47 7.87-5.3 6.32-.07 12.64.11 18.96-.11-.74 2.21-2.25 4.05-3.39 6.05-5.47.03-10.95-.13-16.42.04-1.53.11-1.4 1.86-1.83 2.91 4.04.09 8.08.02 12.12-.02.01 1.98.02 3.96.02 5.95-4.09.03-8.19-.23-12.27.07.35 1.92 1.96 2.81 3.79 2.46 4.73-.14 9.47.24 14.19-.1 1.32 1.9 3.03 3.77 3.52 6.06-6.24-.17-12.49-.02-18.74-.07-2.88.14-5.76-1.44-7.18-3.95-1.58-2.36-1.08-5.32-1.18-7.99.1-2-.23-4.1.54-6zM137.59 144.01c-.34-4.15 3.33-8.03 7.43-8.18 6.57-.1 13.14.1 19.7-.11-1.19 2.01-2.4 4-3.65 5.97-5.33-.1-10.66-.12-15.99-.04-1.62.02-1.57 1.9-1.86 3.02 3.91.04 7.82-.11 11.74-.06-.01 1.97 0 3.94.02 5.91-3.85.05-7.69.03-11.53-.03-.06 2.82-.05 5.65-.07 8.49-1.92-.03-3.84-.03-5.76 0-.04-4.99-.02-9.98-.03-14.97zM166.81 135.81c1.94 0 3.91-.17 5.82.29-.08 5.28-.21 10.57.05 15.84.32.29.97.87 1.3 1.16 5.38.11 10.78.18 16.16-.09 1.22 1.95 2.63 3.82 3.5 5.97-6.57-.14-13.15.06-19.72-.09-3.96-.23-7.23-3.98-7.11-7.91-.03-5.06 0-10.12 0-15.17z"/>
</svg>

