<svg width="346" height="143" viewBox="0 0 346 143" fill="none" xmlns="http://www.w3.org/2000/svg">
<path d="M55.5 46L24 14.5L38.5 0L84.5 46L38.5 92L24 77.5L55.5 46Z" fill="#c2410c"/>
<path d="M60.5 113L43.5 96L60.5 79L77.5 96L60.5 113Z" fill="#c2410c"/>
<path d="M19 73V113H0V63L32 32L46 46L19 73Z" fill="#c2410c"/>
<g opacity="0.9">
<path d="M119.492 114.616C112.882 114.616 107.128 113.333 102.229 110.767C97.3304 108.123 93.5202 104.469 90.7986 99.8031C88.1547 95.1375 86.8328 89.7721 86.8328 83.7068C86.8328 77.5638 88.1547 72.1983 90.7986 67.6105C93.5202 62.9449 97.2915 59.329 102.113 56.763C106.934 54.1191 112.532 52.7972 118.909 52.7972C125.052 52.7972 130.378 54.0414 134.888 56.5297C139.399 59.018 142.898 62.4783 145.386 66.9106C147.874 71.343 149.119 76.5529 149.119 82.5404C149.119 83.7846 149.08 84.951 149.002 86.0396C148.924 87.0505 148.808 88.0225 148.652 88.9556H97.0971V77.4082H134.539L131.506 79.5078C131.506 74.6866 130.34 71.1486 128.007 68.8935C125.752 66.5607 122.641 65.3943 118.676 65.3943C114.088 65.3943 110.511 66.9495 107.945 70.0599C105.456 73.1703 104.212 77.8359 104.212 84.0567C104.212 90.122 105.456 94.6321 107.945 97.587C110.511 100.542 114.321 102.019 119.375 102.019C122.175 102.019 124.585 101.553 126.607 100.62C128.629 99.6865 130.145 98.1702 131.156 96.0706H147.602C145.658 101.825 142.315 106.374 137.571 109.718C132.906 112.983 126.879 114.616 119.492 114.616ZM172.98 113.45L149.535 53.9636H168.314L186.627 109.484H176.829L195.025 53.9636H213.337L189.892 113.45H172.98ZM239.811 113.45L216.366 53.9636H235.145L253.458 109.484H243.66L261.856 53.9636H280.168L256.724 113.45H239.811ZM313.101 114.616C306.491 114.616 300.737 113.333 295.838 110.767C290.939 108.123 287.129 104.469 284.407 99.8031C281.763 95.1375 280.442 89.7721 280.442 83.7068C280.442 77.5638 281.763 72.1983 284.407 67.6105C287.129 62.9449 290.9 59.329 295.721 56.763C300.542 54.1191 306.141 52.7972 312.518 52.7972C318.661 52.7972 323.987 54.0414 328.497 56.5297C333.007 59.018 336.506 62.4783 338.995 66.9106C341.483 71.343 342.727 76.5529 342.727 82.5404C342.727 83.7846 342.688 84.951 342.611 86.0396C342.533 87.0505 342.416 88.0225 342.261 88.9556H290.706V77.4082H328.147L325.115 79.5078C325.115 74.6866 323.948 71.1486 321.615 68.8935C319.36 66.5607 316.25 65.3943 312.284 65.3943C307.696 65.3943 304.119 66.9495 301.553 70.0599C299.065 73.1703 297.821 77.8359 297.821 84.0567C297.821 90.122 299.065 94.6321 301.553 97.587C304.119 100.542 307.93 102.019 312.984 102.019C315.783 102.019 318.194 101.553 320.216 100.62C322.238 99.6865 323.754 98.1702 324.765 96.0706H341.211C339.267 101.825 335.923 106.374 331.18 109.718C326.514 112.983 320.488 114.616 313.101 114.616Z" fill="#c2410c"/>
</g>
</svg>
